{
  "asset": {
    "version": "2.0",
    "generator": "THREE.GLTFExporter"
  },
  "scenes": [
    {
      "nodes": [
        1
      ],
      "name": "AuxScene"
    }
  ],
  "scene": 0,
  "nodes": [
    {
      "matrix": [
        1,
        0,
        0,
        0,
        0,
        2.220446049250313e-16,
        -1,
        0,
        0,
        1,
        2.220446049250313e-16,
        0,
        0,
        0,
        0,
        1
      ],
      "name": "Mesita",
      "mesh": 0
    },
    {
      "children": [
        0
      ]
    }
  ],
  "bufferViews": [
    {
      "buffer": 0,
      "byteOffset": 0,
      "byteLength": 127224,
      "target": 34962,
      "byteStride": 12
    },
    {
      "buffer": 0,
      "byteOffset": 127224,
      "byteLength": 127224,
      "target": 34962,
      "byteStride": 12
    },
    {
      "buffer": 0,
      "byteOffset": 254448,
      "byteLength": 84816,
      "target": 34962,
      "byteStride": 8
    },
    {
      "buffer": 0,
      "byteOffset": 339264,
      "byteLength": 6828,
      "target": 34963
    },
    {
      "buffer": 0,
      "byteOffset": 346092,
      "byteLength": 6828,
      "target": 34963
    },
    {
      "buffer": 0,
      "byteOffset": 352920,
      "byteLength": 7548,
      "target": 34963
    }
  ],
  "buffers": [
    {
      "uri": "MesitaBlackTreadConverterTest_data.bin",
      "byteLength": 360468
    }
  ],
  "accessors": [
    {
      "bufferView": 0,
      "componentType": 5126,
      "count": 10602,
      "max": [
        10.505316734313965,
        10.505316734313965,
        3.3005778789520264
      ],
      "min": [
        -10.505316734313965,
        -10.505316734313965,
        -5.579233646392822
      ],
      "type": "VEC3"
    },
    {
      "bufferView": 1,
      "componentType": 5126,
      "count": 10602,
      "max": [
        1,
        1,
        1
      ],
      "min": [
        -1,
        -1,
        -0.9987103939056396
      ],
      "type": "VEC3"
    },
    {
      "bufferView": 2,
      "componentType": 5126,
      "count": 10602,
      "max": [
        0.9833333492279053,
        0.9999999403953552
      ],
      "min": [
        -0.016666650772094727,
        0
      ],
      "type": "VEC2"
    },
    {
      "bufferView": 3,
      "componentType": 5123,
      "count": 3414,
      "max": [
        3413
      ],
      "min": [
        0
      ],
      "type": "SCALAR"
    },
    {
      "bufferView": 4,
      "componentType": 5123,
      "count": 3414,
      "max": [
        6827
      ],
      "min": [
        3414
      ],
      "type": "SCALAR"
    },
    {
      "bufferView": 5,
      "componentType": 5123,
      "count": 3774,
      "max": [
        10601
      ],
      "min": [
        6828
      ],
      "type": "SCALAR"
    }
  ],
  "materials": [
    {
      "pbrMetallicRoughness": {
        "baseColorFactor": [
          0.2,
          0,
          1,
          1
        ],
        "metallicFactor": 0.5,
        "roughnessFactor": 0.5
      },
      "name": "Material #24"
    },
    {
      "pbrMetallicRoughness": {
        "baseColorFactor": [
          0.2,
          0,
          1,
          1
        ],
        "metallicFactor": 0.5,
        "roughnessFactor": 0.5
      },
      "name": "Material #25"
    }
  ],
  "meshes": [
    {
      "primitives": [
        {
          "mode": 4,
          "attributes": {
            "POSITION": 0,
            "NORMAL": 1
          },
          "indices": 3,
          "material": 0
        },
        {
          "mode": 4,
          "attributes": {
            "POSITION": 0,
            "NORMAL": 1
          },
          "indices": 4,
          "material": 1
        },
        {
          "mode": 4,
          "attributes": {
            "POSITION": 0,
            "NORMAL": 1
          },
          "indices": 5,
          "material": 0
        }
      ]
    }
  ]
}