{"asset":{"version":"2.0","generator":"babylon.js glTF exporter for 3dsmax 2017 v20200917.1"},"scene":0,"scenes":[{"nodes":[0,1]}],"nodes":[{"mesh":0,"name":"Mesita"},{"name":"Default light"}],"meshes":[{"primitives":[{"attributes":{"POSITION":1,"NORMAL":2,"TEXCOORD_0":3},"indices":0,"material":0},{"attributes":{"POSITION":5,"NORMAL":6,"TEXCOORD_0":7},"indices":4,"material":1}],"name":"Mesita"}],"accessors":[{"bufferView":0,"componentType":5123,"count":7188,"type":"SCALAR","name":"accessorIndices"},{"bufferView":1,"componentType":5126,"count":7188,"max":[0.266835034,0.08383468,0.266835034],"min":[-0.266835034,-0.141712531,-0.266835034],"type":"VEC3","name":"accessorPositions"},{"bufferView":1,"byteOffset":86256,"componentType":5126,"count":7188,"type":"VEC3","name":"accessorNormals"},{"bufferView":2,"componentType":5126,"count":7188,"type":"VEC2","name":"accessorUVs"},{"bufferView":0,"byteOffset":14376,"componentType":5123,"count":3414,"type":"SCALAR","name":"accessorIndices"},{"bufferView":1,"byteOffset":172512,"componentType":5126,"count":3414,"max":[0.266581029,0.08383468,0.266581029],"min":[-0.266581029,0.0,-0.266581029],"type":"VEC3","name":"accessorPositions"},{"bufferView":1,"byteOffset":213480,"componentType":5126,"count":3414,"type":"VEC3","name":"accessorNormals"},{"bufferView":2,"byteOffset":57504,"componentType":5126,"count":3414,"type":"VEC2","name":"accessorUVs"}],"bufferViews":[{"buffer":0,"byteLength":21204,"name":"bufferViewScalar"},{"buffer":0,"byteOffset":21204,"byteLength":254448,"byteStride":12,"name":"bufferViewFloatVec3"},{"buffer":0,"byteOffset":275652,"byteLength":84816,"byteStride":8,"name":"bufferViewFloatVec2"}],"buffers":[{"uri":"Test2.bin","byteLength":360468}],"materials":[{"pbrMetallicRoughness":{"baseColorFactor":[0.01438849,0.01438849,0.01438849,1.0],"metallicFactor":0.0,"roughnessFactor":0.0},"name":"Material #24"},{"pbrMetallicRoughness":{"baseColorFactor":[0.971223056,0.971223056,0.971223056,1.0],"metallicFactor":0.0,"roughnessFactor":0.0},"name":"Material #25"}]}